<mxfile host="" modified="2020-06-25T17:38:16.974Z" agent="5.0 (Windows NT 10.0; Win64; x64) AppleWebKit/537.36 (KHTML, like Gecko) Code/1.46.1 Chrome/78.0.3904.130 Electron/7.3.1 Safari/537.36" etag="WO8bGyTD75cvmmQ-XrMX" version="13.1.3">
    <diagram id="6hGFLwfOUW9BJ-s0fimq" name="Page-1">
        <mxGraphModel dx="1147" dy="660" grid="1" gridSize="10" guides="1" tooltips="1" connect="1" arrows="1" fold="1" page="1" pageScale="1" pageWidth="2000" pageHeight="2000" math="0" shadow="0">
            <root>
                <mxCell id="0"/>
                <mxCell id="1" parent="0"/>
                <mxCell id="2" value="Main" style="swimlane;fontStyle=1;align=center;verticalAlign=top;childLayout=stackLayout;horizontal=1;startSize=26;horizontalStack=0;resizeParent=1;resizeParentMax=0;resizeLast=0;collapsible=1;marginBottom=0;fontSize=12;" parent="1" vertex="1">
                    <mxGeometry x="20" y="20" width="160" height="60" as="geometry"/>
                </mxCell>
                <mxCell id="4" value="" style="line;strokeWidth=1;fillColor=none;align=left;verticalAlign=middle;spacingTop=-1;spacingLeft=3;spacingRight=3;rotatable=0;labelPosition=right;points=[];portConstraint=eastwest;fontSize=12;" parent="2" vertex="1">
                    <mxGeometry y="26" width="160" height="8" as="geometry"/>
                </mxCell>
                <mxCell id="5" value="+ main()" style="text;strokeColor=none;fillColor=none;align=left;verticalAlign=top;spacingLeft=4;spacingRight=4;overflow=hidden;rotatable=0;points=[[0,0.5],[1,0.5]];portConstraint=eastwest;fontStyle=4;fontSize=12;" parent="2" vertex="1">
                    <mxGeometry y="34" width="160" height="26" as="geometry"/>
                </mxCell>
                <mxCell id="6" value="MainMenu" style="swimlane;fontStyle=1;align=center;verticalAlign=top;childLayout=stackLayout;horizontal=1;startSize=26;horizontalStack=0;resizeParent=1;resizeParentMax=0;resizeLast=0;collapsible=1;marginBottom=0;fontSize=12;" parent="1" vertex="1">
                    <mxGeometry x="240" y="20" width="190" height="110" as="geometry"/>
                </mxCell>
                <mxCell id="7" value="- activeScreen:ActiveScreen" style="text;strokeColor=none;fillColor=none;align=left;verticalAlign=top;spacingLeft=4;spacingRight=4;overflow=hidden;rotatable=0;points=[[0,0.5],[1,0.5]];portConstraint=eastwest;fontSize=12;" parent="6" vertex="1">
                    <mxGeometry y="26" width="190" height="24" as="geometry"/>
                </mxCell>
                <mxCell id="8" value="" style="line;strokeWidth=1;fillColor=none;align=left;verticalAlign=middle;spacingTop=-1;spacingLeft=3;spacingRight=3;rotatable=0;labelPosition=right;points=[];portConstraint=eastwest;fontSize=12;" parent="6" vertex="1">
                    <mxGeometry y="50" width="190" height="8" as="geometry"/>
                </mxCell>
                <mxCell id="9" value="- printContents()&#10;- getChoice():ActiveScreen&#10;+ start()" style="text;strokeColor=none;fillColor=none;align=left;verticalAlign=top;spacingLeft=4;spacingRight=4;overflow=hidden;rotatable=0;points=[[0,0.5],[1,0.5]];portConstraint=eastwest;fontSize=12;" parent="6" vertex="1">
                    <mxGeometry y="58" width="190" height="52" as="geometry"/>
                </mxCell>
                <mxCell id="37" style="edgeStyle=orthogonalEdgeStyle;rounded=0;orthogonalLoop=1;jettySize=auto;html=1;dashed=1;endArrow=block;endFill=0;exitX=0.5;exitY=0;exitDx=0;exitDy=0;fontSize=12;" parent="1" source="56" target="28" edge="1">
                    <mxGeometry relative="1" as="geometry">
                        <mxPoint x="100" y="280" as="sourcePoint"/>
                        <Array as="points">
                            <mxPoint x="145" y="187"/>
                            <mxPoint x="520" y="187"/>
                        </Array>
                    </mxGeometry>
                </mxCell>
                <mxCell id="38" style="edgeStyle=orthogonalEdgeStyle;rounded=0;orthogonalLoop=1;jettySize=auto;html=1;dashed=1;endArrow=block;endFill=0;exitX=0.5;exitY=0;exitDx=0;exitDy=0;fontSize=12;" parent="1" source="39" target="31" edge="1">
                    <mxGeometry relative="1" as="geometry">
                        <mxPoint x="290" y="220" as="targetPoint"/>
                        <Array as="points">
                            <mxPoint x="380" y="211"/>
                            <mxPoint x="550" y="211"/>
                        </Array>
                    </mxGeometry>
                </mxCell>
                <mxCell id="42" style="edgeStyle=orthogonalEdgeStyle;rounded=0;orthogonalLoop=1;jettySize=auto;html=1;dashed=1;endArrow=block;endFill=0;exitX=0.5;exitY=0;exitDx=0;exitDy=0;fontSize=12;" parent="1" source="43" target="28" edge="1">
                    <mxGeometry relative="1" as="geometry">
                        <mxPoint x="370" y="180" as="targetPoint"/>
                        <Array as="points">
                            <mxPoint x="580" y="280"/>
                        </Array>
                    </mxGeometry>
                </mxCell>
                <mxCell id="46" style="edgeStyle=orthogonalEdgeStyle;rounded=0;orthogonalLoop=1;jettySize=auto;html=1;dashed=1;endArrow=block;endFill=0;exitX=0.5;exitY=0;exitDx=0;exitDy=0;fontSize=12;" parent="1" source="47" target="28" edge="1">
                    <mxGeometry relative="1" as="geometry">
                        <mxPoint x="580" y="190" as="targetPoint"/>
                        <Array as="points">
                            <mxPoint x="740" y="190"/>
                            <mxPoint x="610" y="190"/>
                        </Array>
                    </mxGeometry>
                </mxCell>
                <mxCell id="28" value="&lt;&lt;interface&gt;&gt;&#10;ActiveScreen" style="swimlane;fontStyle=1;align=center;verticalAlign=top;childLayout=stackLayout;horizontal=1;startSize=40;horizontalStack=0;resizeParent=1;resizeParentMax=0;resizeLast=0;collapsible=1;marginBottom=0;fontSize=12;" parent="1" vertex="1">
                    <mxGeometry x="490" y="36" width="160" height="74" as="geometry"/>
                </mxCell>
                <mxCell id="30" value="" style="line;strokeWidth=1;fillColor=none;align=left;verticalAlign=middle;spacingTop=-1;spacingLeft=3;spacingRight=3;rotatable=0;labelPosition=right;points=[];portConstraint=eastwest;fontSize=12;" parent="28" vertex="1">
                    <mxGeometry y="40" width="160" height="8" as="geometry"/>
                </mxCell>
                <mxCell id="31" value="+ init()" style="text;strokeColor=none;fillColor=none;align=left;verticalAlign=top;spacingLeft=4;spacingRight=4;overflow=hidden;rotatable=0;points=[[0,0.5],[1,0.5]];portConstraint=eastwest;fontSize=12;" parent="28" vertex="1">
                    <mxGeometry y="48" width="160" height="26" as="geometry"/>
                </mxCell>
                <mxCell id="39" value="Scores" style="swimlane;fontStyle=1;align=center;verticalAlign=top;childLayout=stackLayout;horizontal=1;startSize=26;horizontalStack=0;resizeParent=1;resizeParentMax=0;resizeLast=0;collapsible=1;marginBottom=0;fontSize=12;" parent="1" vertex="1">
                    <mxGeometry x="300" y="280" width="160" height="90" as="geometry"/>
                </mxCell>
                <mxCell id="40" value="" style="line;strokeWidth=1;fillColor=none;align=left;verticalAlign=middle;spacingTop=-1;spacingLeft=3;spacingRight=3;rotatable=0;labelPosition=right;points=[];portConstraint=eastwest;fontSize=12;" parent="39" vertex="1">
                    <mxGeometry y="26" width="160" height="8" as="geometry"/>
                </mxCell>
                <mxCell id="41" value="- printScreenTitle()&#10;- readScores()&#10;+ init()" style="text;strokeColor=none;fillColor=none;align=left;verticalAlign=top;spacingLeft=4;spacingRight=4;overflow=hidden;rotatable=0;points=[[0,0.5],[1,0.5]];portConstraint=eastwest;fontSize=12;" parent="39" vertex="1">
                    <mxGeometry y="34" width="160" height="56" as="geometry"/>
                </mxCell>
                <mxCell id="43" value="Credits" style="swimlane;fontStyle=1;align=center;verticalAlign=top;childLayout=stackLayout;horizontal=1;startSize=26;horizontalStack=0;resizeParent=1;resizeParentMax=0;resizeLast=0;collapsible=1;marginBottom=0;fontSize=12;" parent="1" vertex="1">
                    <mxGeometry x="480" y="280" width="160" height="90" as="geometry"/>
                </mxCell>
                <mxCell id="44" value="" style="line;strokeWidth=1;fillColor=none;align=left;verticalAlign=middle;spacingTop=-1;spacingLeft=3;spacingRight=3;rotatable=0;labelPosition=right;points=[];portConstraint=eastwest;fontSize=12;" parent="43" vertex="1">
                    <mxGeometry y="26" width="160" height="8" as="geometry"/>
                </mxCell>
                <mxCell id="45" value="- printScreenTitle()&#10;- creditsBody()&#10;+ init()" style="text;strokeColor=none;fillColor=none;align=left;verticalAlign=top;spacingLeft=4;spacingRight=4;overflow=hidden;rotatable=0;points=[[0,0.5],[1,0.5]];portConstraint=eastwest;fontSize=12;" parent="43" vertex="1">
                    <mxGeometry y="34" width="160" height="56" as="geometry"/>
                </mxCell>
                <mxCell id="47" value="Exit" style="swimlane;fontStyle=1;align=center;verticalAlign=top;childLayout=stackLayout;horizontal=1;startSize=26;horizontalStack=0;resizeParent=1;resizeParentMax=0;resizeLast=0;collapsible=1;marginBottom=0;fontSize=12;" parent="1" vertex="1">
                    <mxGeometry x="660" y="280" width="160" height="80" as="geometry"/>
                </mxCell>
                <mxCell id="48" value="" style="line;strokeWidth=1;fillColor=none;align=left;verticalAlign=middle;spacingTop=-1;spacingLeft=3;spacingRight=3;rotatable=0;labelPosition=right;points=[];portConstraint=eastwest;fontSize=12;" parent="47" vertex="1">
                    <mxGeometry y="26" width="160" height="8" as="geometry"/>
                </mxCell>
                <mxCell id="49" value="- save()&#10;+ init()" style="text;strokeColor=none;fillColor=none;align=left;verticalAlign=top;spacingLeft=4;spacingRight=4;overflow=hidden;rotatable=0;points=[[0,0.5],[1,0.5]];portConstraint=eastwest;fontSize=12;" parent="47" vertex="1">
                    <mxGeometry y="34" width="160" height="46" as="geometry"/>
                </mxCell>
                <mxCell id="109" style="edgeStyle=orthogonalEdgeStyle;rounded=0;orthogonalLoop=1;jettySize=auto;html=1;dashed=1;endArrow=block;endFill=0;exitX=0.5;exitY=0;exitDx=0;exitDy=0;fontSize=12;" parent="1" source="69" target="68" edge="1">
                    <mxGeometry relative="1" as="geometry">
                        <mxPoint x="409" y="989" as="targetPoint"/>
                        <Array as="points">
                            <mxPoint x="124" y="880"/>
                        </Array>
                        <mxPoint x="609" y="1058" as="sourcePoint"/>
                    </mxGeometry>
                </mxCell>
                <mxCell id="110" style="edgeStyle=orthogonalEdgeStyle;rounded=0;orthogonalLoop=1;jettySize=auto;html=1;dashed=1;endArrow=block;endFill=0;exitX=0.5;exitY=0;exitDx=0;exitDy=0;fontSize=12;" parent="1" source="73" target="68" edge="1">
                    <mxGeometry relative="1" as="geometry">
                        <mxPoint x="429" y="949" as="targetPoint"/>
                        <Array as="points">
                            <mxPoint x="389" y="1079"/>
                            <mxPoint x="389" y="1009"/>
                            <mxPoint x="499" y="1009"/>
                        </Array>
                        <mxPoint x="389" y="1060" as="sourcePoint"/>
                    </mxGeometry>
                </mxCell>
                <mxCell id="112" style="edgeStyle=orthogonalEdgeStyle;rounded=0;orthogonalLoop=1;jettySize=auto;html=1;dashed=1;endArrow=block;endFill=0;fontSize=12;" parent="1" source="77" target="68" edge="1">
                    <mxGeometry relative="1" as="geometry">
                        <mxPoint x="739" y="939" as="targetPoint"/>
                        <Array as="points">
                            <mxPoint x="620" y="1010"/>
                            <mxPoint x="620" y="1010"/>
                        </Array>
                        <mxPoint x="629" y="1079" as="sourcePoint"/>
                    </mxGeometry>
                </mxCell>
                <mxCell id="115" style="edgeStyle=orthogonalEdgeStyle;rounded=0;orthogonalLoop=1;jettySize=auto;html=1;dashed=1;endArrow=block;endFill=0;exitX=1;exitY=0.5;exitDx=0;exitDy=0;fontSize=12;" parent="1" source="90" target="68" edge="1">
                    <mxGeometry relative="1" as="geometry">
                        <mxPoint x="479" y="1019" as="targetPoint"/>
                        <Array as="points">
                            <mxPoint x="219" y="1372"/>
                            <mxPoint x="240" y="1372"/>
                            <mxPoint x="240" y="908"/>
                        </Array>
                        <mxPoint x="249" y="1439" as="sourcePoint"/>
                    </mxGeometry>
                </mxCell>
                <mxCell id="116" style="edgeStyle=orthogonalEdgeStyle;rounded=0;orthogonalLoop=1;jettySize=auto;html=1;dashed=1;endArrow=block;endFill=0;exitX=1;exitY=0.5;exitDx=0;exitDy=0;fontSize=12;" parent="1" source="94" target="68" edge="1">
                    <mxGeometry relative="1" as="geometry">
                        <mxPoint x="744" y="979" as="targetPoint"/>
                        <Array as="points">
                            <mxPoint x="469" y="1372"/>
                            <mxPoint x="489" y="1372"/>
                            <mxPoint x="489" y="1030"/>
                            <mxPoint x="520" y="1030"/>
                        </Array>
                        <mxPoint x="479" y="1412.0000000000002" as="sourcePoint"/>
                    </mxGeometry>
                </mxCell>
                <mxCell id="117" style="edgeStyle=orthogonalEdgeStyle;rounded=0;orthogonalLoop=1;jettySize=auto;html=1;dashed=1;endArrow=block;endFill=0;exitX=1;exitY=0.5;exitDx=0;exitDy=0;fontSize=12;" parent="1" source="98" target="68" edge="1">
                    <mxGeometry relative="1" as="geometry">
                        <mxPoint x="769.0588235294117" y="979" as="targetPoint"/>
                        <Array as="points">
                            <mxPoint x="719" y="1372"/>
                            <mxPoint x="759" y="1372"/>
                            <mxPoint x="759" y="1049"/>
                            <mxPoint x="650" y="1049"/>
                        </Array>
                        <mxPoint x="719" y="1392.0000000000002" as="sourcePoint"/>
                    </mxGeometry>
                </mxCell>
                <mxCell id="118" style="edgeStyle=orthogonalEdgeStyle;rounded=0;orthogonalLoop=1;jettySize=auto;html=1;dashed=1;endArrow=block;endFill=0;exitX=1;exitY=0.5;exitDx=0;exitDy=0;fontSize=12;" parent="1" source="102" target="68" edge="1">
                    <mxGeometry relative="1" as="geometry">
                        <mxPoint x="868.9988235294118" y="979" as="targetPoint"/>
                        <Array as="points">
                            <mxPoint x="239" y="1862"/>
                            <mxPoint x="259" y="1862"/>
                            <mxPoint x="259" y="1740"/>
                            <mxPoint x="780" y="1740"/>
                            <mxPoint x="780" y="940"/>
                        </Array>
                        <mxPoint x="988.94" y="1392.0000000000002" as="sourcePoint"/>
                    </mxGeometry>
                </mxCell>
                <mxCell id="119" style="edgeStyle=orthogonalEdgeStyle;rounded=0;orthogonalLoop=1;jettySize=auto;html=1;dashed=1;endArrow=block;endFill=0;exitX=1;exitY=0.5;exitDx=0;exitDy=0;fontSize=12;" parent="1" source="106" target="68" edge="1">
                    <mxGeometry relative="1" as="geometry">
                        <mxPoint x="958.9988235294118" y="979" as="targetPoint"/>
                        <Array as="points">
                            <mxPoint x="529" y="1862"/>
                            <mxPoint x="799" y="1862"/>
                            <mxPoint x="799" y="908"/>
                        </Array>
                        <mxPoint x="1278.94" y="1392.0000000000002" as="sourcePoint"/>
                    </mxGeometry>
                </mxCell>
                <mxCell id="56" value="Game" style="swimlane;fontStyle=1;align=center;verticalAlign=top;childLayout=stackLayout;horizontal=1;startSize=26;horizontalStack=0;resizeParent=1;resizeParentMax=0;resizeLast=0;collapsible=1;marginBottom=0;fontSize=12;" parent="1" vertex="1">
                    <mxGeometry x="10" y="280" width="270" height="330" as="geometry"/>
                </mxCell>
                <mxCell id="57" value="- Boolean rolled&#10;- Boolean parried&#10;- Boolean levelUp&#10;- Integer nextUpgradeCost&#10;- Integer totalDefeatedEnemies&#10;- Integer defeatedEnemies" style="text;strokeColor=none;fillColor=none;align=left;verticalAlign=top;spacingLeft=4;spacingRight=4;overflow=hidden;rotatable=0;points=[[0,0.5],[1,0.5]];portConstraint=eastwest;fontSize=12;" parent="56" vertex="1">
                    <mxGeometry y="26" width="270" height="104" as="geometry"/>
                </mxCell>
                <mxCell id="58" value="" style="line;strokeWidth=1;fillColor=none;align=left;verticalAlign=middle;spacingTop=-1;spacingLeft=3;spacingRight=3;rotatable=0;labelPosition=right;points=[];portConstraint=eastwest;fontSize=12;" parent="56" vertex="1">
                    <mxGeometry y="130" width="270" height="8" as="geometry"/>
                </mxCell>
                <mxCell id="59" value="- printScreenTitle()&#10;- fightingPhase()&#10;- playerActions(player:Player, enemy:Enemy)&#10;- getChoice()&#10;- enemyActions(player:Player, enemy:Enemy)&#10;- execBasicAttack(player:Player, enemy:Enemy)&#10;- execRoll(player:Player, enemy:Enemy)&#10;- execParry(player:Player, enemy:Enemy)&#10;- upgrade(player:Player)&#10;- enemyDies(player:Player)&#10;- playerDies(player:Player)&#10;+ Game()&#10;+ init()" style="text;strokeColor=none;fillColor=none;align=left;verticalAlign=top;spacingLeft=4;spacingRight=4;overflow=hidden;rotatable=0;points=[[0,0.5],[1,0.5]];portConstraint=eastwest;fontSize=12;" parent="56" vertex="1">
                    <mxGeometry y="138" width="270" height="192" as="geometry"/>
                </mxCell>
                <mxCell id="61" value="Player" style="swimlane;fontStyle=1;align=center;verticalAlign=top;childLayout=stackLayout;horizontal=1;startSize=26;horizontalStack=0;resizeParent=1;resizeParentMax=0;resizeLast=0;collapsible=1;marginBottom=0;fontSize=12;" parent="1" vertex="1">
                    <mxGeometry x="340" y="426" width="290" height="350" as="geometry"/>
                </mxCell>
                <mxCell id="62" value="- name:String&#10;- maxHealth:Float&#10;- health:Float&#10;- damage:Float&#10;- totalAcquiredSouls:Integer&#10;- souls:Integer" style="text;strokeColor=none;fillColor=none;align=left;verticalAlign=top;spacingLeft=4;spacingRight=4;overflow=hidden;rotatable=0;points=[[0,0.5],[1,0.5]];portConstraint=eastwest;fontSize=12;" parent="61" vertex="1">
                    <mxGeometry y="26" width="290" height="94" as="geometry"/>
                </mxCell>
                <mxCell id="63" value="" style="line;strokeWidth=1;fillColor=none;align=left;verticalAlign=middle;spacingTop=-1;spacingLeft=3;spacingRight=3;rotatable=0;labelPosition=right;points=[];portConstraint=eastwest;fontSize=12;" parent="61" vertex="1">
                    <mxGeometry y="120" width="290" height="8" as="geometry"/>
                </mxCell>
                <mxCell id="64" value="+ Player()&#10;+ inputName():String&#10;+ getName():String&#10;+ printInfo()&#10;+ getHealth():Float&#10;+ decreaseHealth()&#10;+ isDead():Boolean&#10;+ getTotalAcquiredSouls():Integer&#10;+ hasEnoughSouls(cost:Integer):Boolean&#10;+ addSouls(defeatedEnemies:Integer)&#10;+ decreaseSouls(cost:Integer)&#10;+ attack(enemy:Enemy)&#10;+ attack(enemy:Enemy, damageMultiplier:Float)&#10;+ upgradeHealth(defeatedEnemies:Integer)&#10;+ upgradeDamageOutput(defeatedEnemies:Integer)" style="text;strokeColor=none;fillColor=none;align=left;verticalAlign=top;spacingLeft=4;spacingRight=4;overflow=hidden;rotatable=0;points=[[0,0.5],[1,0.5]];portConstraint=eastwest;fontSize=12;" parent="61" vertex="1">
                    <mxGeometry y="128" width="290" height="222" as="geometry"/>
                </mxCell>
                <mxCell id="69" value="Ghost" style="swimlane;fontStyle=1;align=center;verticalAlign=top;childLayout=stackLayout;horizontal=1;startSize=26;horizontalStack=0;resizeParent=1;resizeParentMax=0;resizeLast=0;collapsible=1;marginBottom=0;fontSize=12;" parent="1" vertex="1">
                    <mxGeometry x="29" y="1079" width="190" height="200" as="geometry"/>
                </mxCell>
                <mxCell id="70" value="- name:String&#10;- weapon:Weapon&#10;- health:Float" style="text;strokeColor=none;fillColor=none;align=left;verticalAlign=top;spacingLeft=4;spacingRight=4;overflow=hidden;rotatable=0;points=[[0,0.5],[1,0.5]];portConstraint=eastwest;fontSize=12;" parent="69" vertex="1">
                    <mxGeometry y="26" width="190" height="54" as="geometry"/>
                </mxCell>
                <mxCell id="71" value="" style="line;strokeWidth=1;fillColor=none;align=left;verticalAlign=middle;spacingTop=-1;spacingLeft=3;spacingRight=3;rotatable=0;labelPosition=right;points=[];portConstraint=eastwest;fontSize=12;" parent="69" vertex="1">
                    <mxGeometry y="80" width="190" height="8" as="geometry"/>
                </mxCell>
                <mxCell id="72" value="+ Ghost(Weapon weapon)&#10;+ printInfo()&#10;+ getHealth():Float&#10;+ decreaseHealth(damage:Float)&#10;+ isBoss():Boolean&#10;+ isDead():Boolean&#10;+ attack():Float" style="text;strokeColor=none;fillColor=none;align=left;verticalAlign=top;spacingLeft=4;spacingRight=4;overflow=hidden;rotatable=0;points=[[0,0.5],[1,0.5]];portConstraint=eastwest;fontSize=12;" parent="69" vertex="1">
                    <mxGeometry y="88" width="190" height="112" as="geometry"/>
                </mxCell>
                <mxCell id="77" value="UndeadAssassin" style="swimlane;fontStyle=1;align=center;verticalAlign=top;childLayout=stackLayout;horizontal=1;startSize=26;horizontalStack=0;resizeParent=1;resizeParentMax=0;resizeLast=0;collapsible=1;marginBottom=0;fontSize=12;" parent="1" vertex="1">
                    <mxGeometry x="529" y="1079" width="210" height="200" as="geometry"/>
                </mxCell>
                <mxCell id="78" value="- name:String&#10;- weapon:Weapon&#10;- health:Float" style="text;strokeColor=none;fillColor=none;align=left;verticalAlign=top;spacingLeft=4;spacingRight=4;overflow=hidden;rotatable=0;points=[[0,0.5],[1,0.5]];portConstraint=eastwest;fontSize=12;" parent="77" vertex="1">
                    <mxGeometry y="26" width="210" height="54" as="geometry"/>
                </mxCell>
                <mxCell id="79" value="" style="line;strokeWidth=1;fillColor=none;align=left;verticalAlign=middle;spacingTop=-1;spacingLeft=3;spacingRight=3;rotatable=0;labelPosition=right;points=[];portConstraint=eastwest;fontSize=12;" parent="77" vertex="1">
                    <mxGeometry y="80" width="210" height="8" as="geometry"/>
                </mxCell>
                <mxCell id="80" value="+ UndeadAssassin(Weapon weapon)&#10;+ printInfo()&#10;+ getHealth():Float&#10;+ decreaseHealth(damage:Float)&#10;+ isBoss():Boolean&#10;+ isDead():Boolean&#10;+ attack():Float" style="text;strokeColor=none;fillColor=none;align=left;verticalAlign=top;spacingLeft=4;spacingRight=4;overflow=hidden;rotatable=0;points=[[0,0.5],[1,0.5]];portConstraint=eastwest;fontSize=12;" parent="77" vertex="1">
                    <mxGeometry y="88" width="210" height="112" as="geometry"/>
                </mxCell>
                <mxCell id="73" value="Skeleton" style="swimlane;fontStyle=1;align=center;verticalAlign=top;childLayout=stackLayout;horizontal=1;startSize=26;horizontalStack=0;resizeParent=1;resizeParentMax=0;resizeLast=0;collapsible=1;marginBottom=0;fontSize=12;" parent="1" vertex="1">
                    <mxGeometry x="279" y="1079" width="190" height="200" as="geometry"/>
                </mxCell>
                <mxCell id="74" value="- name:String&#10;- weapon:Weapon&#10;- health:Float" style="text;strokeColor=none;fillColor=none;align=left;verticalAlign=top;spacingLeft=4;spacingRight=4;overflow=hidden;rotatable=0;points=[[0,0.5],[1,0.5]];portConstraint=eastwest;fontSize=12;" parent="73" vertex="1">
                    <mxGeometry y="26" width="190" height="54" as="geometry"/>
                </mxCell>
                <mxCell id="75" value="" style="line;strokeWidth=1;fillColor=none;align=left;verticalAlign=middle;spacingTop=-1;spacingLeft=3;spacingRight=3;rotatable=0;labelPosition=right;points=[];portConstraint=eastwest;fontSize=12;" parent="73" vertex="1">
                    <mxGeometry y="80" width="190" height="8" as="geometry"/>
                </mxCell>
                <mxCell id="76" value="+ Skeleton(Weapon weapon)&#10;+ printInfo()&#10;+ getHealth():Float&#10;+ decreaseHealth(damage:Float)&#10;+ isBoss():Boolean&#10;+ isDead():Boolean&#10;+ attack():Float" style="text;strokeColor=none;fillColor=none;align=left;verticalAlign=top;spacingLeft=4;spacingRight=4;overflow=hidden;rotatable=0;points=[[0,0.5],[1,0.5]];portConstraint=eastwest;fontSize=12;" parent="73" vertex="1">
                    <mxGeometry y="88" width="190" height="112" as="geometry"/>
                </mxCell>
                <mxCell id="130" value="Creator" style="swimlane;fontStyle=1;align=center;verticalAlign=top;childLayout=stackLayout;horizontal=1;startSize=26;horizontalStack=0;resizeParent=1;resizeParentMax=0;resizeLast=0;collapsible=1;marginBottom=0;fontSize=12;" parent="1" vertex="1">
                    <mxGeometry x="719" y="544" width="260" height="80" as="geometry"/>
                </mxCell>
                <mxCell id="132" value="" style="line;strokeWidth=1;fillColor=none;align=left;verticalAlign=middle;spacingTop=-1;spacingLeft=3;spacingRight=3;rotatable=0;labelPosition=right;points=[];portConstraint=eastwest;fontSize=12;" parent="130" vertex="1">
                    <mxGeometry y="26" width="260" height="8" as="geometry"/>
                </mxCell>
                <mxCell id="133" value="+ getEnemy(defeatedEnemies:Integer):Enemy&#10;- getWeapon(enemy:Integer)" style="text;strokeColor=none;fillColor=none;align=left;verticalAlign=top;spacingLeft=4;spacingRight=4;overflow=hidden;rotatable=0;points=[[0,0.5],[1,0.5]];portConstraint=eastwest;fontSize=12;fontStyle=4" parent="130" vertex="1">
                    <mxGeometry y="34" width="260" height="46" as="geometry"/>
                </mxCell>
                <mxCell id="180" value="Storage" style="swimlane;fontStyle=1;align=center;verticalAlign=top;childLayout=stackLayout;horizontal=1;startSize=26;horizontalStack=0;resizeParent=1;resizeParentMax=0;resizeLast=0;collapsible=1;marginBottom=0;" parent="1" vertex="1">
                    <mxGeometry x="910" y="340" width="200" height="160" as="geometry"/>
                </mxCell>
                <mxCell id="181" value="- instance:Storage&#10;- saveFile:File&#10;- newRecords:List&lt;String&gt;" style="text;strokeColor=none;fillColor=none;align=left;verticalAlign=top;spacingLeft=4;spacingRight=4;overflow=hidden;rotatable=0;points=[[0,0.5],[1,0.5]];portConstraint=eastwest;fontStyle=4" parent="180" vertex="1">
                    <mxGeometry y="26" width="200" height="54" as="geometry"/>
                </mxCell>
                <mxCell id="182" value="" style="line;strokeWidth=1;fillColor=none;align=left;verticalAlign=middle;spacingTop=-1;spacingLeft=3;spacingRight=3;rotatable=0;labelPosition=right;points=[];portConstraint=eastwest;" parent="180" vertex="1">
                    <mxGeometry y="80" width="200" height="8" as="geometry"/>
                </mxCell>
                <mxCell id="183" value="- Storage()&#10;+ save()&#10;+ append()&#10;+ getInstance()" style="text;strokeColor=none;fillColor=none;align=left;verticalAlign=top;spacingLeft=4;spacingRight=4;overflow=hidden;rotatable=0;points=[[0,0.5],[1,0.5]];portConstraint=eastwest;" parent="180" vertex="1">
                    <mxGeometry y="88" width="200" height="72" as="geometry"/>
                </mxCell>
                <mxCell id="89" value="Pinwheel" style="swimlane;fontStyle=1;align=center;verticalAlign=top;childLayout=stackLayout;horizontal=1;startSize=26;horizontalStack=0;resizeParent=1;resizeParentMax=0;resizeLast=0;collapsible=1;marginBottom=0;fontSize=12;" parent="1" vertex="1">
                    <mxGeometry x="29" y="1300" width="190" height="200" as="geometry"/>
                </mxCell>
                <mxCell id="90" value="- name:String&#10;- weapon:Weapon&#10;- health:Float" style="text;strokeColor=none;fillColor=none;align=left;verticalAlign=top;spacingLeft=4;spacingRight=4;overflow=hidden;rotatable=0;points=[[0,0.5],[1,0.5]];portConstraint=eastwest;fontSize=12;" parent="89" vertex="1">
                    <mxGeometry y="26" width="190" height="54" as="geometry"/>
                </mxCell>
                <mxCell id="91" value="" style="line;strokeWidth=1;fillColor=none;align=left;verticalAlign=middle;spacingTop=-1;spacingLeft=3;spacingRight=3;rotatable=0;labelPosition=right;points=[];portConstraint=eastwest;fontSize=12;" parent="89" vertex="1">
                    <mxGeometry y="80" width="190" height="8" as="geometry"/>
                </mxCell>
                <mxCell id="92" value="+ Pinwheel(Weapon weapon)&#10;+ printInfo()&#10;+ getHealth():Float&#10;+ decreaseHealth(damage:Float)&#10;+ isBoss():Boolean&#10;+ isDead():Boolean&#10;+ attack():Float" style="text;strokeColor=none;fillColor=none;align=left;verticalAlign=top;spacingLeft=4;spacingRight=4;overflow=hidden;rotatable=0;points=[[0,0.5],[1,0.5]];portConstraint=eastwest;fontSize=12;" parent="89" vertex="1">
                    <mxGeometry y="88" width="190" height="112" as="geometry"/>
                </mxCell>
                <mxCell id="93" value="CapraDemon" style="swimlane;fontStyle=1;align=center;verticalAlign=top;childLayout=stackLayout;horizontal=1;startSize=26;horizontalStack=0;resizeParent=1;resizeParentMax=0;resizeLast=0;collapsible=1;marginBottom=0;fontSize=12;" parent="1" vertex="1">
                    <mxGeometry x="279" y="1300" width="190" height="200" as="geometry"/>
                </mxCell>
                <mxCell id="94" value="- name:String&#10;- weapon:Weapon&#10;- health:Float" style="text;strokeColor=none;fillColor=none;align=left;verticalAlign=top;spacingLeft=4;spacingRight=4;overflow=hidden;rotatable=0;points=[[0,0.5],[1,0.5]];portConstraint=eastwest;fontSize=12;" parent="93" vertex="1">
                    <mxGeometry y="26" width="190" height="54" as="geometry"/>
                </mxCell>
                <mxCell id="95" value="" style="line;strokeWidth=1;fillColor=none;align=left;verticalAlign=middle;spacingTop=-1;spacingLeft=3;spacingRight=3;rotatable=0;labelPosition=right;points=[];portConstraint=eastwest;fontSize=12;" parent="93" vertex="1">
                    <mxGeometry y="80" width="190" height="8" as="geometry"/>
                </mxCell>
                <mxCell id="96" value="+ CapraDemon(Weapon weapon)&#10;+ printInfo()&#10;+ getHealth():Float&#10;+ decreaseHealth(damage:Float)&#10;+ isBoss():Boolean&#10;+ isDead():Boolean&#10;+ attack():Float" style="text;strokeColor=none;fillColor=none;align=left;verticalAlign=top;spacingLeft=4;spacingRight=4;overflow=hidden;rotatable=0;points=[[0,0.5],[1,0.5]];portConstraint=eastwest;fontSize=12;" parent="93" vertex="1">
                    <mxGeometry y="88" width="190" height="112" as="geometry"/>
                </mxCell>
                <mxCell id="97" value="BellGargoyle" style="swimlane;fontStyle=1;align=center;verticalAlign=top;childLayout=stackLayout;horizontal=1;startSize=26;horizontalStack=0;resizeParent=1;resizeParentMax=0;resizeLast=0;collapsible=1;marginBottom=0;fontSize=12;" parent="1" vertex="1">
                    <mxGeometry x="529" y="1300" width="190" height="200" as="geometry"/>
                </mxCell>
                <mxCell id="98" value="- name:String&#10;- weapon:Weapon&#10;- health:Float" style="text;strokeColor=none;fillColor=none;align=left;verticalAlign=top;spacingLeft=4;spacingRight=4;overflow=hidden;rotatable=0;points=[[0,0.5],[1,0.5]];portConstraint=eastwest;fontSize=12;" parent="97" vertex="1">
                    <mxGeometry y="26" width="190" height="54" as="geometry"/>
                </mxCell>
                <mxCell id="99" value="" style="line;strokeWidth=1;fillColor=none;align=left;verticalAlign=middle;spacingTop=-1;spacingLeft=3;spacingRight=3;rotatable=0;labelPosition=right;points=[];portConstraint=eastwest;fontSize=12;" parent="97" vertex="1">
                    <mxGeometry y="80" width="190" height="8" as="geometry"/>
                </mxCell>
                <mxCell id="100" value="+ BellGargoyle(Weapon weapon)&#10;+ printInfo()&#10;+ getHealth():Float&#10;+ decreaseHealth(damage:Float)&#10;+ isBoss():Boolean&#10;+ isDead():Boolean&#10;+ attack():Float" style="text;strokeColor=none;fillColor=none;align=left;verticalAlign=top;spacingLeft=4;spacingRight=4;overflow=hidden;rotatable=0;points=[[0,0.5],[1,0.5]];portConstraint=eastwest;fontSize=12;" parent="97" vertex="1">
                    <mxGeometry y="88" width="190" height="112" as="geometry"/>
                </mxCell>
                <mxCell id="65" value="&lt;&lt;interface&gt;&gt;&#10;Enemy" style="swimlane;fontStyle=1;align=center;verticalAlign=top;childLayout=stackLayout;horizontal=1;startSize=40;horizontalStack=0;resizeParent=1;resizeParentMax=0;resizeLast=0;collapsible=1;marginBottom=0;fontSize=12;" parent="1" vertex="1">
                    <mxGeometry x="480" y="830" width="190" height="150" as="geometry"/>
                </mxCell>
                <mxCell id="67" value="" style="line;strokeWidth=1;fillColor=none;align=left;verticalAlign=middle;spacingTop=-1;spacingLeft=3;spacingRight=3;rotatable=0;labelPosition=right;points=[];portConstraint=eastwest;fontSize=12;" parent="65" vertex="1">
                    <mxGeometry y="40" width="190" height="8" as="geometry"/>
                </mxCell>
                <mxCell id="68" value="+ printInfo()&#10;+ getHealth():Float&#10;+ decreaseHealth(damage:Float)&#10;+ isBoss():Boolean&#10;+ isDead():Boolean&#10;+ attack():Float" style="text;strokeColor=none;fillColor=none;align=left;verticalAlign=top;spacingLeft=4;spacingRight=4;overflow=hidden;rotatable=0;points=[[0,0.5],[1,0.5]];portConstraint=eastwest;fontSize=12;" parent="65" vertex="1">
                    <mxGeometry y="48" width="190" height="102" as="geometry"/>
                </mxCell>
                <mxCell id="136" value="&lt;&lt;interface&gt;&gt;&#10;Weapon" style="swimlane;fontStyle=1;align=center;verticalAlign=top;childLayout=stackLayout;horizontal=1;startSize=40;horizontalStack=0;resizeParent=1;resizeParentMax=0;resizeLast=0;collapsible=1;marginBottom=0;" parent="1" vertex="1">
                    <mxGeometry x="880" y="830" width="160" height="100" as="geometry"/>
                </mxCell>
                <mxCell id="138" value="" style="line;strokeWidth=1;fillColor=none;align=left;verticalAlign=middle;spacingTop=-1;spacingLeft=3;spacingRight=3;rotatable=0;labelPosition=right;points=[];portConstraint=eastwest;" parent="136" vertex="1">
                    <mxGeometry y="40" width="160" height="8" as="geometry"/>
                </mxCell>
                <mxCell id="139" value="+ getName():String&#10;+ getDamage():Integer&#10;+ getCritMultiplier():Float" style="text;strokeColor=none;fillColor=none;align=left;verticalAlign=top;spacingLeft=4;spacingRight=4;overflow=hidden;rotatable=0;points=[[0,0.5],[1,0.5]];portConstraint=eastwest;" parent="136" vertex="1">
                    <mxGeometry y="48" width="160" height="52" as="geometry"/>
                </mxCell>
                <mxCell id="140" value="Knife" style="swimlane;fontStyle=1;align=center;verticalAlign=top;childLayout=stackLayout;horizontal=1;startSize=26;horizontalStack=0;resizeParent=1;resizeParentMax=0;resizeLast=0;collapsible=1;marginBottom=0;fontSize=12;" parent="1" vertex="1">
                    <mxGeometry x="880" y="1010" width="150" height="160" as="geometry"/>
                </mxCell>
                <mxCell id="141" value="- name:String&#10;- damage:Integer&#10;- critMultiplier:Float" style="text;strokeColor=none;fillColor=none;align=left;verticalAlign=top;spacingLeft=4;spacingRight=4;overflow=hidden;rotatable=0;points=[[0,0.5],[1,0.5]];portConstraint=eastwest;fontSize=12;" parent="140" vertex="1">
                    <mxGeometry y="26" width="150" height="54" as="geometry"/>
                </mxCell>
                <mxCell id="142" value="" style="line;strokeWidth=1;fillColor=none;align=left;verticalAlign=middle;spacingTop=-1;spacingLeft=3;spacingRight=3;rotatable=0;labelPosition=right;points=[];portConstraint=eastwest;fontSize=12;" parent="140" vertex="1">
                    <mxGeometry y="80" width="150" height="8" as="geometry"/>
                </mxCell>
                <mxCell id="143" value="+ Knife()&#10;+ getName():String&#10;+ getDamage():Integer&#10;+ getCritMultiplier():Float" style="text;strokeColor=none;fillColor=none;align=left;verticalAlign=top;spacingLeft=4;spacingRight=4;overflow=hidden;rotatable=0;points=[[0,0.5],[1,0.5]];portConstraint=eastwest;fontSize=12;" parent="140" vertex="1">
                    <mxGeometry y="88" width="150" height="72" as="geometry"/>
                </mxCell>
                <mxCell id="148" value="Axe" style="swimlane;fontStyle=1;align=center;verticalAlign=top;childLayout=stackLayout;horizontal=1;startSize=26;horizontalStack=0;resizeParent=1;resizeParentMax=0;resizeLast=0;collapsible=1;marginBottom=0;fontSize=12;" parent="1" vertex="1">
                    <mxGeometry x="1240" y="1010" width="150" height="160" as="geometry"/>
                </mxCell>
                <mxCell id="149" value="- name:String&#10;- damage:Integer&#10;- critMultiplier:Float" style="text;strokeColor=none;fillColor=none;align=left;verticalAlign=top;spacingLeft=4;spacingRight=4;overflow=hidden;rotatable=0;points=[[0,0.5],[1,0.5]];portConstraint=eastwest;fontSize=12;" parent="148" vertex="1">
                    <mxGeometry y="26" width="150" height="54" as="geometry"/>
                </mxCell>
                <mxCell id="150" value="" style="line;strokeWidth=1;fillColor=none;align=left;verticalAlign=middle;spacingTop=-1;spacingLeft=3;spacingRight=3;rotatable=0;labelPosition=right;points=[];portConstraint=eastwest;fontSize=12;" parent="148" vertex="1">
                    <mxGeometry y="80" width="150" height="8" as="geometry"/>
                </mxCell>
                <mxCell id="151" value="+ Axe()&#10;+ getName():String&#10;+ getDamage():Integer&#10;+ getCritMultiplier():Float" style="text;strokeColor=none;fillColor=none;align=left;verticalAlign=top;spacingLeft=4;spacingRight=4;overflow=hidden;rotatable=0;points=[[0,0.5],[1,0.5]];portConstraint=eastwest;fontSize=12;" parent="148" vertex="1">
                    <mxGeometry y="88" width="150" height="72" as="geometry"/>
                </mxCell>
                <mxCell id="81" value="UndeadSoldier" style="swimlane;fontStyle=1;align=center;verticalAlign=top;childLayout=stackLayout;horizontal=1;startSize=26;horizontalStack=0;resizeParent=1;resizeParentMax=0;resizeLast=0;collapsible=1;marginBottom=0;fontSize=12;" parent="1" vertex="1">
                    <mxGeometry x="29" y="1520" width="200" height="200" as="geometry"/>
                </mxCell>
                <mxCell id="82" value="- name:String&#10;- weapon:Weapon&#10;- health:Float" style="text;strokeColor=none;fillColor=none;align=left;verticalAlign=top;spacingLeft=4;spacingRight=4;overflow=hidden;rotatable=0;points=[[0,0.5],[1,0.5]];portConstraint=eastwest;fontSize=12;" parent="81" vertex="1">
                    <mxGeometry y="26" width="200" height="54" as="geometry"/>
                </mxCell>
                <mxCell id="83" value="" style="line;strokeWidth=1;fillColor=none;align=left;verticalAlign=middle;spacingTop=-1;spacingLeft=3;spacingRight=3;rotatable=0;labelPosition=right;points=[];portConstraint=eastwest;fontSize=12;" parent="81" vertex="1">
                    <mxGeometry y="80" width="200" height="8" as="geometry"/>
                </mxCell>
                <mxCell id="84" value="+ UndeadSoldier(Weapon weapon)&#10;+ printInfo()&#10;+ getHealth():Float&#10;+ decreaseHealth(damage:Float)&#10;+ isBoss():Boolean&#10;+ isDead():Boolean&#10;+ attack():Float" style="text;strokeColor=none;fillColor=none;align=left;verticalAlign=top;spacingLeft=4;spacingRight=4;overflow=hidden;rotatable=0;points=[[0,0.5],[1,0.5]];portConstraint=eastwest;fontSize=12;" parent="81" vertex="1">
                    <mxGeometry y="88" width="200" height="112" as="geometry"/>
                </mxCell>
                <mxCell id="85" value="InfestedBarbarian" style="swimlane;fontStyle=1;align=center;verticalAlign=top;childLayout=stackLayout;horizontal=1;startSize=26;horizontalStack=0;resizeParent=1;resizeParentMax=0;resizeLast=0;collapsible=1;marginBottom=0;fontSize=12;" parent="1" vertex="1">
                    <mxGeometry x="279" y="1520" width="220" height="200" as="geometry"/>
                </mxCell>
                <mxCell id="86" value="- name:String&#10;- weapon:Weapon&#10;- health:Float" style="text;strokeColor=none;fillColor=none;align=left;verticalAlign=top;spacingLeft=4;spacingRight=4;overflow=hidden;rotatable=0;points=[[0,0.5],[1,0.5]];portConstraint=eastwest;fontSize=12;" parent="85" vertex="1">
                    <mxGeometry y="26" width="220" height="54" as="geometry"/>
                </mxCell>
                <mxCell id="87" value="" style="line;strokeWidth=1;fillColor=none;align=left;verticalAlign=middle;spacingTop=-1;spacingLeft=3;spacingRight=3;rotatable=0;labelPosition=right;points=[];portConstraint=eastwest;fontSize=12;" parent="85" vertex="1">
                    <mxGeometry y="80" width="220" height="8" as="geometry"/>
                </mxCell>
                <mxCell id="88" value="+ InfestedBarbarian(Weapon weapon)&#10;+ printInfo()&#10;+ getHealth():Float&#10;+ decreaseHealth(damage:Float)&#10;+ isBoss():Boolean&#10;+ isDead():Boolean&#10;+ attack():Float" style="text;strokeColor=none;fillColor=none;align=left;verticalAlign=top;spacingLeft=4;spacingRight=4;overflow=hidden;rotatable=0;points=[[0,0.5],[1,0.5]];portConstraint=eastwest;fontSize=12;" parent="85" vertex="1">
                    <mxGeometry y="88" width="220" height="112" as="geometry"/>
                </mxCell>
                <mxCell id="152" value="Club" style="swimlane;fontStyle=1;align=center;verticalAlign=top;childLayout=stackLayout;horizontal=1;startSize=26;horizontalStack=0;resizeParent=1;resizeParentMax=0;resizeLast=0;collapsible=1;marginBottom=0;fontSize=12;" parent="1" vertex="1">
                    <mxGeometry x="880" y="1200" width="150" height="160" as="geometry"/>
                </mxCell>
                <mxCell id="153" value="- name:String&#10;- damage:Integer&#10;- critMultiplier:Float" style="text;strokeColor=none;fillColor=none;align=left;verticalAlign=top;spacingLeft=4;spacingRight=4;overflow=hidden;rotatable=0;points=[[0,0.5],[1,0.5]];portConstraint=eastwest;fontSize=12;" parent="152" vertex="1">
                    <mxGeometry y="26" width="150" height="54" as="geometry"/>
                </mxCell>
                <mxCell id="154" value="" style="line;strokeWidth=1;fillColor=none;align=left;verticalAlign=middle;spacingTop=-1;spacingLeft=3;spacingRight=3;rotatable=0;labelPosition=right;points=[];portConstraint=eastwest;fontSize=12;" parent="152" vertex="1">
                    <mxGeometry y="80" width="150" height="8" as="geometry"/>
                </mxCell>
                <mxCell id="155" value="+ Club()&#10;+ getName():String&#10;+ getDamage():Integer&#10;+ getCritMultiplier():Float" style="text;strokeColor=none;fillColor=none;align=left;verticalAlign=top;spacingLeft=4;spacingRight=4;overflow=hidden;rotatable=0;points=[[0,0.5],[1,0.5]];portConstraint=eastwest;fontSize=12;" parent="152" vertex="1">
                    <mxGeometry y="88" width="150" height="72" as="geometry"/>
                </mxCell>
                <mxCell id="156" value="Spear" style="swimlane;fontStyle=1;align=center;verticalAlign=top;childLayout=stackLayout;horizontal=1;startSize=26;horizontalStack=0;resizeParent=1;resizeParentMax=0;resizeLast=0;collapsible=1;marginBottom=0;fontSize=12;" parent="1" vertex="1">
                    <mxGeometry x="1060" y="1200" width="150" height="160" as="geometry"/>
                </mxCell>
                <mxCell id="157" value="- name:String&#10;- damage:Integer&#10;- critMultiplier:Float" style="text;strokeColor=none;fillColor=none;align=left;verticalAlign=top;spacingLeft=4;spacingRight=4;overflow=hidden;rotatable=0;points=[[0,0.5],[1,0.5]];portConstraint=eastwest;fontSize=12;" parent="156" vertex="1">
                    <mxGeometry y="26" width="150" height="54" as="geometry"/>
                </mxCell>
                <mxCell id="158" value="" style="line;strokeWidth=1;fillColor=none;align=left;verticalAlign=middle;spacingTop=-1;spacingLeft=3;spacingRight=3;rotatable=0;labelPosition=right;points=[];portConstraint=eastwest;fontSize=12;" parent="156" vertex="1">
                    <mxGeometry y="80" width="150" height="8" as="geometry"/>
                </mxCell>
                <mxCell id="159" value="+ Spear()&#10;+ getName():String&#10;+ getDamage():Integer&#10;+ getCritMultiplier():Float" style="text;strokeColor=none;fillColor=none;align=left;verticalAlign=top;spacingLeft=4;spacingRight=4;overflow=hidden;rotatable=0;points=[[0,0.5],[1,0.5]];portConstraint=eastwest;fontSize=12;" parent="156" vertex="1">
                    <mxGeometry y="88" width="150" height="72" as="geometry"/>
                </mxCell>
                <mxCell id="160" value="Sword" style="swimlane;fontStyle=1;align=center;verticalAlign=top;childLayout=stackLayout;horizontal=1;startSize=26;horizontalStack=0;resizeParent=1;resizeParentMax=0;resizeLast=0;collapsible=1;marginBottom=0;fontSize=12;" parent="1" vertex="1">
                    <mxGeometry x="1240" y="1200" width="150" height="160" as="geometry"/>
                </mxCell>
                <mxCell id="161" value="- name:String&#10;- damage:Integer&#10;- critMultiplier:Float" style="text;strokeColor=none;fillColor=none;align=left;verticalAlign=top;spacingLeft=4;spacingRight=4;overflow=hidden;rotatable=0;points=[[0,0.5],[1,0.5]];portConstraint=eastwest;fontSize=12;" parent="160" vertex="1">
                    <mxGeometry y="26" width="150" height="54" as="geometry"/>
                </mxCell>
                <mxCell id="162" value="" style="line;strokeWidth=1;fillColor=none;align=left;verticalAlign=middle;spacingTop=-1;spacingLeft=3;spacingRight=3;rotatable=0;labelPosition=right;points=[];portConstraint=eastwest;fontSize=12;" parent="160" vertex="1">
                    <mxGeometry y="80" width="150" height="8" as="geometry"/>
                </mxCell>
                <mxCell id="163" value="+ Sword()&#10;+ getName():String&#10;+ getDamage():Integer&#10;+ getCritMultiplier():Float" style="text;strokeColor=none;fillColor=none;align=left;verticalAlign=top;spacingLeft=4;spacingRight=4;overflow=hidden;rotatable=0;points=[[0,0.5],[1,0.5]];portConstraint=eastwest;fontSize=12;" parent="160" vertex="1">
                    <mxGeometry y="88" width="150" height="72" as="geometry"/>
                </mxCell>
                <mxCell id="168" value="GreatHammer" style="swimlane;fontStyle=1;align=center;verticalAlign=top;childLayout=stackLayout;horizontal=1;startSize=26;horizontalStack=0;resizeParent=1;resizeParentMax=0;resizeLast=0;collapsible=1;marginBottom=0;fontSize=12;" parent="1" vertex="1">
                    <mxGeometry x="1060" y="1390" width="150" height="160" as="geometry"/>
                </mxCell>
                <mxCell id="169" value="- name:String&#10;- damage:Integer&#10;- critMultiplier:Float" style="text;strokeColor=none;fillColor=none;align=left;verticalAlign=top;spacingLeft=4;spacingRight=4;overflow=hidden;rotatable=0;points=[[0,0.5],[1,0.5]];portConstraint=eastwest;fontSize=12;" parent="168" vertex="1">
                    <mxGeometry y="26" width="150" height="54" as="geometry"/>
                </mxCell>
                <mxCell id="170" value="" style="line;strokeWidth=1;fillColor=none;align=left;verticalAlign=middle;spacingTop=-1;spacingLeft=3;spacingRight=3;rotatable=0;labelPosition=right;points=[];portConstraint=eastwest;fontSize=12;" parent="168" vertex="1">
                    <mxGeometry y="80" width="150" height="8" as="geometry"/>
                </mxCell>
                <mxCell id="171" value="+ GreatHammer()&#10;+ getName():String&#10;+ getDamage():Integer&#10;+ getCritMultiplier():Float" style="text;strokeColor=none;fillColor=none;align=left;verticalAlign=top;spacingLeft=4;spacingRight=4;overflow=hidden;rotatable=0;points=[[0,0.5],[1,0.5]];portConstraint=eastwest;fontSize=12;" parent="168" vertex="1">
                    <mxGeometry y="88" width="150" height="72" as="geometry"/>
                </mxCell>
                <mxCell id="101" value="OnsteinSmough" style="swimlane;fontStyle=1;align=center;verticalAlign=top;childLayout=stackLayout;horizontal=1;startSize=26;horizontalStack=0;resizeParent=1;resizeParentMax=0;resizeLast=0;collapsible=1;marginBottom=0;fontSize=12;" parent="1" vertex="1">
                    <mxGeometry x="29" y="1760" width="210" height="200" as="geometry"/>
                </mxCell>
                <mxCell id="102" value="- name:String&#10;- weapon:Weapon&#10;- health:Float" style="text;strokeColor=none;fillColor=none;align=left;verticalAlign=top;spacingLeft=4;spacingRight=4;overflow=hidden;rotatable=0;points=[[0,0.5],[1,0.5]];portConstraint=eastwest;fontSize=12;" parent="101" vertex="1">
                    <mxGeometry y="26" width="210" height="54" as="geometry"/>
                </mxCell>
                <mxCell id="103" value="" style="line;strokeWidth=1;fillColor=none;align=left;verticalAlign=middle;spacingTop=-1;spacingLeft=3;spacingRight=3;rotatable=0;labelPosition=right;points=[];portConstraint=eastwest;fontSize=12;" parent="101" vertex="1">
                    <mxGeometry y="80" width="210" height="8" as="geometry"/>
                </mxCell>
                <mxCell id="104" value="+ OrnsteinSmough(Weapon weapon)&#10;+ printInfo()&#10;+ getHealth():Float&#10;+ decreaseHealth(damage:Float)&#10;+ isBoss():Boolean&#10;+ isDead():Boolean&#10;+ attack():Float" style="text;strokeColor=none;fillColor=none;align=left;verticalAlign=top;spacingLeft=4;spacingRight=4;overflow=hidden;rotatable=0;points=[[0,0.5],[1,0.5]];portConstraint=eastwest;fontSize=12;" parent="101" vertex="1">
                    <mxGeometry y="88" width="210" height="112" as="geometry"/>
                </mxCell>
                <mxCell id="105" value="GwynLordOfCinder" style="swimlane;fontStyle=1;align=center;verticalAlign=top;childLayout=stackLayout;horizontal=1;startSize=26;horizontalStack=0;resizeParent=1;resizeParentMax=0;resizeLast=0;collapsible=1;marginBottom=0;fontSize=12;" parent="1" vertex="1">
                    <mxGeometry x="299" y="1760" width="230" height="200" as="geometry"/>
                </mxCell>
                <mxCell id="106" value="- name:String&#10;- weapon:Weapon&#10;- health:Float" style="text;strokeColor=none;fillColor=none;align=left;verticalAlign=top;spacingLeft=4;spacingRight=4;overflow=hidden;rotatable=0;points=[[0,0.5],[1,0.5]];portConstraint=eastwest;fontSize=12;" parent="105" vertex="1">
                    <mxGeometry y="26" width="230" height="54" as="geometry"/>
                </mxCell>
                <mxCell id="107" value="" style="line;strokeWidth=1;fillColor=none;align=left;verticalAlign=middle;spacingTop=-1;spacingLeft=3;spacingRight=3;rotatable=0;labelPosition=right;points=[];portConstraint=eastwest;fontSize=12;" parent="105" vertex="1">
                    <mxGeometry y="80" width="230" height="8" as="geometry"/>
                </mxCell>
                <mxCell id="108" value="+ GwynLordOfCinder(Weapon weapon)&#10;+ printInfo()&#10;+ getHealth():Float&#10;+ decreaseHealth(damage:Float)&#10;+ isBoss():Boolean&#10;+ isDead():Boolean&#10;+ attack():Float" style="text;strokeColor=none;fillColor=none;align=left;verticalAlign=top;spacingLeft=4;spacingRight=4;overflow=hidden;rotatable=0;points=[[0,0.5],[1,0.5]];portConstraint=eastwest;fontSize=12;" parent="105" vertex="1">
                    <mxGeometry y="88" width="230" height="112" as="geometry"/>
                </mxCell>
                <mxCell id="121" style="edgeStyle=orthogonalEdgeStyle;rounded=0;orthogonalLoop=1;jettySize=auto;html=1;dashed=1;endArrow=block;endFill=0;exitX=1;exitY=0.5;exitDx=0;exitDy=0;fontSize=12;" parent="1" source="82" target="68" edge="1">
                    <mxGeometry relative="1" as="geometry">
                        <mxPoint x="774" y="809.0000000000002" as="targetPoint"/>
                        <Array as="points">
                            <mxPoint x="260" y="1573"/>
                            <mxPoint x="260" y="940"/>
                        </Array>
                        <mxPoint x="339" y="1682" as="sourcePoint"/>
                    </mxGeometry>
                </mxCell>
                <mxCell id="122" style="edgeStyle=orthogonalEdgeStyle;rounded=0;orthogonalLoop=1;jettySize=auto;html=1;dashed=1;endArrow=block;endFill=0;exitX=1;exitY=0.5;exitDx=0;exitDy=0;fontSize=12;" parent="1" source="86" target="68" edge="1">
                    <mxGeometry relative="1" as="geometry">
                        <mxPoint x="775" y="959.0000000000002" as="targetPoint"/>
                        <Array as="points">
                            <mxPoint x="510" y="1573"/>
                            <mxPoint x="510" y="1060"/>
                            <mxPoint x="560" y="1060"/>
                        </Array>
                        <mxPoint x="520" y="1592" as="sourcePoint"/>
                    </mxGeometry>
                </mxCell>
                <mxCell id="125" value="" style="endArrow=open;endFill=1;endSize=12;html=1;fontSize=12;" parent="1" edge="1">
                    <mxGeometry width="160" relative="1" as="geometry">
                        <mxPoint x="179" y="40.00000000000006" as="sourcePoint"/>
                        <mxPoint x="239" y="40" as="targetPoint"/>
                    </mxGeometry>
                </mxCell>
                <mxCell id="126" value="" style="endArrow=open;endFill=1;endSize=12;html=1;fontSize=12;" parent="1" edge="1">
                    <mxGeometry width="160" relative="1" as="geometry">
                        <mxPoint x="280" y="444.58000000000004" as="sourcePoint"/>
                        <mxPoint x="340" y="444.58000000000004" as="targetPoint"/>
                    </mxGeometry>
                </mxCell>
                <mxCell id="127" value="" style="endArrow=open;endFill=1;endSize=12;html=1;fontSize=12;" parent="1" edge="1">
                    <mxGeometry width="160" relative="1" as="geometry">
                        <mxPoint x="430" y="60.00000000000006" as="sourcePoint"/>
                        <mxPoint x="490" y="60.00000000000006" as="targetPoint"/>
                    </mxGeometry>
                </mxCell>
                <mxCell id="135" value="" style="endArrow=open;endFill=1;endSize=12;html=1;fontSize=12;" parent="1" source="59" target="130" edge="1">
                    <mxGeometry width="160" relative="1" as="geometry">
                        <mxPoint x="260" y="629.9999999999999" as="sourcePoint"/>
                        <mxPoint x="320" y="629.9999999999999" as="targetPoint"/>
                        <Array as="points">
                            <mxPoint x="300" y="800"/>
                            <mxPoint x="670" y="800"/>
                        </Array>
                    </mxGeometry>
                </mxCell>
                <mxCell id="144" value="Magic" style="swimlane;fontStyle=1;align=center;verticalAlign=top;childLayout=stackLayout;horizontal=1;startSize=26;horizontalStack=0;resizeParent=1;resizeParentMax=0;resizeLast=0;collapsible=1;marginBottom=0;fontSize=12;" parent="1" vertex="1">
                    <mxGeometry x="1060" y="1010" width="150" height="160" as="geometry"/>
                </mxCell>
                <mxCell id="145" value="- name:String&#10;- damage:Integer&#10;- critMultiplier:Float" style="text;strokeColor=none;fillColor=none;align=left;verticalAlign=top;spacingLeft=4;spacingRight=4;overflow=hidden;rotatable=0;points=[[0,0.5],[1,0.5]];portConstraint=eastwest;fontSize=12;" parent="144" vertex="1">
                    <mxGeometry y="26" width="150" height="54" as="geometry"/>
                </mxCell>
                <mxCell id="146" value="" style="line;strokeWidth=1;fillColor=none;align=left;verticalAlign=middle;spacingTop=-1;spacingLeft=3;spacingRight=3;rotatable=0;labelPosition=right;points=[];portConstraint=eastwest;fontSize=12;" parent="144" vertex="1">
                    <mxGeometry y="80" width="150" height="8" as="geometry"/>
                </mxCell>
                <mxCell id="147" value="+ Magic()&#10;+ getName():String&#10;+ getDamage():Integer&#10;+ getCritMultiplier():Float" style="text;strokeColor=none;fillColor=none;align=left;verticalAlign=top;spacingLeft=4;spacingRight=4;overflow=hidden;rotatable=0;points=[[0,0.5],[1,0.5]];portConstraint=eastwest;fontSize=12;" parent="144" vertex="1">
                    <mxGeometry y="88" width="150" height="72" as="geometry"/>
                </mxCell>
                <mxCell id="164" value="Halberd" style="swimlane;fontStyle=1;align=center;verticalAlign=top;childLayout=stackLayout;horizontal=1;startSize=26;horizontalStack=0;resizeParent=1;resizeParentMax=0;resizeLast=0;collapsible=1;marginBottom=0;fontSize=12;" parent="1" vertex="1">
                    <mxGeometry x="880" y="1390" width="150" height="160" as="geometry"/>
                </mxCell>
                <mxCell id="165" value="- name:String&#10;- damage:Integer&#10;- critMultiplier:Float" style="text;strokeColor=none;fillColor=none;align=left;verticalAlign=top;spacingLeft=4;spacingRight=4;overflow=hidden;rotatable=0;points=[[0,0.5],[1,0.5]];portConstraint=eastwest;fontSize=12;" parent="164" vertex="1">
                    <mxGeometry y="26" width="150" height="54" as="geometry"/>
                </mxCell>
                <mxCell id="166" value="" style="line;strokeWidth=1;fillColor=none;align=left;verticalAlign=middle;spacingTop=-1;spacingLeft=3;spacingRight=3;rotatable=0;labelPosition=right;points=[];portConstraint=eastwest;fontSize=12;" parent="164" vertex="1">
                    <mxGeometry y="80" width="150" height="8" as="geometry"/>
                </mxCell>
                <mxCell id="167" value="+ Halberd()&#10;+ getName():String&#10;+ getDamage():Integer&#10;+ getCritMultiplier():Float" style="text;strokeColor=none;fillColor=none;align=left;verticalAlign=top;spacingLeft=4;spacingRight=4;overflow=hidden;rotatable=0;points=[[0,0.5],[1,0.5]];portConstraint=eastwest;fontSize=12;" parent="164" vertex="1">
                    <mxGeometry y="88" width="150" height="72" as="geometry"/>
                </mxCell>
                <mxCell id="172" style="edgeStyle=orthogonalEdgeStyle;rounded=0;orthogonalLoop=1;jettySize=auto;html=1;dashed=1;endArrow=block;endFill=0;exitX=1;exitY=0.5;exitDx=0;exitDy=0;fontSize=12;entryX=1;entryY=0.25;entryDx=0;entryDy=0;" parent="1" source="169" target="136" edge="1">
                    <mxGeometry relative="1" as="geometry">
                        <mxPoint x="1371" y="596" as="targetPoint"/>
                        <Array as="points">
                            <mxPoint x="1440" y="1443"/>
                            <mxPoint x="1440" y="855"/>
                        </Array>
                        <mxPoint x="1230.0000000000002" y="1501" as="sourcePoint"/>
                    </mxGeometry>
                </mxCell>
                <mxCell id="173" style="edgeStyle=orthogonalEdgeStyle;rounded=0;orthogonalLoop=1;jettySize=auto;html=1;dashed=1;endArrow=block;endFill=0;fontSize=12;exitX=1;exitY=0.5;exitDx=0;exitDy=0;" parent="1" source="161" target="136" edge="1">
                    <mxGeometry relative="1" as="geometry">
                        <mxPoint x="1070" y="880" as="targetPoint"/>
                        <Array as="points">
                            <mxPoint x="1420" y="1253"/>
                            <mxPoint x="1420" y="880"/>
                        </Array>
                        <mxPoint x="1190" y="1378" as="sourcePoint"/>
                    </mxGeometry>
                </mxCell>
                <mxCell id="174" style="edgeStyle=orthogonalEdgeStyle;rounded=0;orthogonalLoop=1;jettySize=auto;html=1;dashed=1;endArrow=block;endFill=0;fontSize=12;exitX=1;exitY=0.5;exitDx=0;exitDy=0;" parent="1" source="149" target="139" edge="1">
                    <mxGeometry relative="1" as="geometry">
                        <mxPoint x="1040" y="760" as="targetPoint"/>
                        <Array as="points">
                            <mxPoint x="1400" y="1063"/>
                            <mxPoint x="1400" y="910"/>
                        </Array>
                        <mxPoint x="1390" y="1133.0000000000002" as="sourcePoint"/>
                    </mxGeometry>
                </mxCell>
                <mxCell id="175" style="edgeStyle=orthogonalEdgeStyle;rounded=0;orthogonalLoop=1;jettySize=auto;html=1;dashed=1;endArrow=block;endFill=0;exitX=1;exitY=0.5;exitDx=0;exitDy=0;fontSize=12;" parent="1" source="157" target="136" edge="1">
                    <mxGeometry relative="1" as="geometry">
                        <mxPoint x="1060" y="720" as="targetPoint"/>
                        <Array as="points">
                            <mxPoint x="1230" y="1253"/>
                            <mxPoint x="1230" y="960"/>
                            <mxPoint x="1020" y="960"/>
                        </Array>
                        <mxPoint x="1230" y="1308" as="sourcePoint"/>
                    </mxGeometry>
                </mxCell>
                <mxCell id="176" style="edgeStyle=orthogonalEdgeStyle;rounded=0;orthogonalLoop=1;jettySize=auto;html=1;dashed=1;endArrow=block;endFill=0;fontSize=12;" parent="1" source="144" target="139" edge="1">
                    <mxGeometry relative="1" as="geometry">
                        <mxPoint x="1040" y="940" as="targetPoint"/>
                        <Array as="points">
                            <mxPoint x="1130" y="990"/>
                            <mxPoint x="990" y="990"/>
                        </Array>
                        <mxPoint x="1220" y="1263" as="sourcePoint"/>
                    </mxGeometry>
                </mxCell>
                <mxCell id="177" style="edgeStyle=orthogonalEdgeStyle;rounded=0;orthogonalLoop=1;jettySize=auto;html=1;dashed=1;endArrow=block;endFill=0;fontSize=12;" parent="1" source="140" target="136" edge="1">
                    <mxGeometry relative="1" as="geometry">
                        <mxPoint x="940" y="930.0000000000002" as="targetPoint"/>
                        <Array as="points">
                            <mxPoint x="960" y="970"/>
                            <mxPoint x="960" y="970"/>
                        </Array>
                        <mxPoint x="1070" y="1010" as="sourcePoint"/>
                    </mxGeometry>
                </mxCell>
                <mxCell id="178" style="edgeStyle=orthogonalEdgeStyle;rounded=0;orthogonalLoop=1;jettySize=auto;html=1;dashed=1;endArrow=block;endFill=0;fontSize=12;" parent="1" source="152" target="136" edge="1">
                    <mxGeometry relative="1" as="geometry">
                        <mxPoint x="870" y="940" as="targetPoint"/>
                        <Array as="points">
                            <mxPoint x="870" y="1280"/>
                            <mxPoint x="870" y="990"/>
                            <mxPoint x="930" y="990"/>
                        </Array>
                        <mxPoint x="870" y="1020" as="sourcePoint"/>
                    </mxGeometry>
                </mxCell>
                <mxCell id="179" style="edgeStyle=orthogonalEdgeStyle;rounded=0;orthogonalLoop=1;jettySize=auto;html=1;dashed=1;endArrow=block;endFill=0;fontSize=12;exitX=0;exitY=0.5;exitDx=0;exitDy=0;" parent="1" source="165" target="139" edge="1">
                    <mxGeometry relative="1" as="geometry">
                        <mxPoint x="930" y="1079" as="targetPoint"/>
                        <Array as="points">
                            <mxPoint x="850" y="1443"/>
                            <mxPoint x="850" y="970"/>
                            <mxPoint x="900" y="970"/>
                        </Array>
                        <mxPoint x="870" y="1429" as="sourcePoint"/>
                    </mxGeometry>
                </mxCell>
                <mxCell id="184" value="" style="endArrow=open;endFill=1;endSize=12;html=1;fontSize=12;entryX=0;entryY=0.5;entryDx=0;entryDy=0;exitX=1.003;exitY=0.814;exitDx=0;exitDy=0;exitPerimeter=0;" parent="1" source="57" target="181" edge="1">
                    <mxGeometry width="160" relative="1" as="geometry">
                        <mxPoint x="282" y="389" as="sourcePoint"/>
                        <mxPoint x="960" y="396" as="targetPoint"/>
                        <Array as="points"/>
                    </mxGeometry>
                </mxCell>
                <mxCell id="185" value="" style="endArrow=open;endFill=1;endSize=12;html=1;fontSize=12;" edge="1" parent="1" source="130" target="136">
                    <mxGeometry width="160" relative="1" as="geometry">
                        <mxPoint x="940" y="649.9999999999997" as="sourcePoint"/>
                        <mxPoint x="1000" y="649.9999999999997" as="targetPoint"/>
                    </mxGeometry>
                </mxCell>
                <mxCell id="186" value="" style="endArrow=open;endFill=1;endSize=12;html=1;fontSize=12;" edge="1" parent="1" source="130" target="65">
                    <mxGeometry width="160" relative="1" as="geometry">
                        <mxPoint x="901.75" y="610" as="sourcePoint"/>
                        <mxPoint x="979" y="816" as="targetPoint"/>
                        <Array as="points">
                            <mxPoint x="770" y="810"/>
                        </Array>
                    </mxGeometry>
                </mxCell>
            </root>
        </mxGraphModel>
    </diagram>
</mxfile>